<mxfile host="app.diagrams.net" modified="2020-06-25T05:24:34.575Z" agent="5.0 (Windows NT 10.0; WOW64) AppleWebKit/537.36 (KHTML, like Gecko) Chrome/72.0.3626.81 Safari/537.36 SE 2.X MetaSr 1.0" etag="6x1U_aDuckaINRwZmC8d" version="13.3.4" type="github">
  <diagram id="Vka-AFUoa103Gdw_GIIq" name="第 1 页">
    <mxGraphModel dx="1394" dy="747" grid="1" gridSize="10" guides="1" tooltips="1" connect="1" arrows="1" fold="1" page="1" pageScale="1" pageWidth="827" pageHeight="1169" math="0" shadow="0">
      <root>
        <mxCell id="0" />
        <mxCell id="1" parent="0" />
        <mxCell id="w8SIw142XSMGnm05AS23-1" value="" style="shape=table;html=1;whiteSpace=wrap;startSize=0;container=1;collapsible=0;childLayout=tableLayout;fontSize=15;verticalAlign=middle;" vertex="1" parent="1">
          <mxGeometry x="170" y="160" width="560" height="240" as="geometry" />
        </mxCell>
        <mxCell id="w8SIw142XSMGnm05AS23-2" value="" style="shape=partialRectangle;html=1;whiteSpace=wrap;collapsible=0;dropTarget=0;pointerEvents=0;fillColor=none;top=0;left=0;bottom=0;right=0;points=[[0,0.5],[1,0.5]];portConstraint=eastwest;" vertex="1" parent="w8SIw142XSMGnm05AS23-1">
          <mxGeometry width="560" height="40" as="geometry" />
        </mxCell>
        <mxCell id="w8SIw142XSMGnm05AS23-3" value="Sentence" style="shape=partialRectangle;html=1;whiteSpace=wrap;connectable=0;fillColor=none;top=0;left=0;bottom=0;right=0;overflow=hidden;fontStyle=1;fontSize=17;" vertex="1" parent="w8SIw142XSMGnm05AS23-2">
          <mxGeometry width="121" height="40" as="geometry" />
        </mxCell>
        <mxCell id="w8SIw142XSMGnm05AS23-4" value="&lt;p class=&quot;MsoNormal&quot; style=&quot;font-size: 15px&quot;&gt;&lt;span style=&quot;font-size: 15px&quot;&gt;&lt;font face=&quot;宋体&quot; style=&quot;font-size: 15px&quot;&gt;美国网络司令部在&lt;/font&gt;2014&lt;font face=&quot;宋体&quot; style=&quot;font-size: 15px&quot;&gt;年&lt;/font&gt;&lt;font face=&quot;Times New Roman&quot; style=&quot;font-size: 15px&quot;&gt;3&lt;/font&gt;&lt;font face=&quot;宋体&quot; style=&quot;font-size: 15px&quot;&gt;月扩编了大约&lt;/font&gt;&lt;font face=&quot;Times New Roman&quot; style=&quot;font-size: 15px&quot;&gt;900&lt;/font&gt;&lt;font face=&quot;宋体&quot; style=&quot;font-size: 15px&quot;&gt;人规模。&lt;/font&gt;&lt;/span&gt;&lt;/p&gt;" style="shape=partialRectangle;html=1;whiteSpace=wrap;connectable=0;fillColor=none;top=0;left=0;bottom=0;right=0;overflow=hidden;fontFamily=Lucida Console;fontSize=15;align=center;verticalAlign=bottom;horizontal=1;spacingTop=-4;" vertex="1" parent="w8SIw142XSMGnm05AS23-2">
          <mxGeometry x="121" width="439" height="40" as="geometry" />
        </mxCell>
        <mxCell id="w8SIw142XSMGnm05AS23-6" value="" style="shape=partialRectangle;html=1;whiteSpace=wrap;collapsible=0;dropTarget=0;pointerEvents=0;fillColor=none;top=0;left=0;bottom=0;right=0;points=[[0,0.5],[1,0.5]];portConstraint=eastwest;" vertex="1" parent="w8SIw142XSMGnm05AS23-1">
          <mxGeometry y="40" width="560" height="50" as="geometry" />
        </mxCell>
        <mxCell id="w8SIw142XSMGnm05AS23-7" value="Entity 1" style="shape=partialRectangle;html=1;whiteSpace=wrap;connectable=0;fillColor=none;top=0;left=0;bottom=0;right=0;overflow=hidden;fontSize=17;fontStyle=1" vertex="1" parent="w8SIw142XSMGnm05AS23-6">
          <mxGeometry width="121" height="50" as="geometry" />
        </mxCell>
        <mxCell id="w8SIw142XSMGnm05AS23-8" value="&lt;p class=&quot;MsoNormal&quot; style=&quot;font-size: 15px;&quot;&gt;&lt;span style=&quot;font-size: 15px;&quot;&gt;&lt;font face=&quot;宋体&quot; style=&quot;font-size: 15px;&quot;&gt;美国&lt;/font&gt;_&lt;/span&gt;&lt;span style=&quot;font-family: &amp;quot;times new roman&amp;quot;; font-size: 15px;&quot;&gt;Nation&lt;/span&gt;&lt;/p&gt;" style="shape=partialRectangle;html=1;whiteSpace=wrap;connectable=0;fillColor=none;top=0;left=0;bottom=0;right=0;overflow=hidden;fontSize=15;" vertex="1" parent="w8SIw142XSMGnm05AS23-6">
          <mxGeometry x="121" width="439" height="50" as="geometry" />
        </mxCell>
        <mxCell id="w8SIw142XSMGnm05AS23-10" value="" style="shape=partialRectangle;html=1;whiteSpace=wrap;collapsible=0;dropTarget=0;pointerEvents=0;fillColor=none;top=0;left=0;bottom=0;right=0;points=[[0,0.5],[1,0.5]];portConstraint=eastwest;" vertex="1" parent="w8SIw142XSMGnm05AS23-1">
          <mxGeometry y="90" width="560" height="50" as="geometry" />
        </mxCell>
        <mxCell id="w8SIw142XSMGnm05AS23-11" value="Entity 2" style="shape=partialRectangle;html=1;whiteSpace=wrap;connectable=0;fillColor=none;top=0;left=0;bottom=0;right=0;overflow=hidden;fontSize=17;fontStyle=1" vertex="1" parent="w8SIw142XSMGnm05AS23-10">
          <mxGeometry width="121" height="50" as="geometry" />
        </mxCell>
        <mxCell id="w8SIw142XSMGnm05AS23-12" value="&lt;p class=&quot;MsoNormal&quot; style=&quot;font-size: 15px;&quot;&gt;&lt;span style=&quot;font-size: 15px;&quot;&gt;&lt;font face=&quot;宋体&quot; style=&quot;font-size: 15px;&quot;&gt;网络司令部&lt;/font&gt;_Org&lt;/span&gt;&lt;/p&gt;" style="shape=partialRectangle;html=1;whiteSpace=wrap;connectable=0;fillColor=none;top=0;left=0;bottom=0;right=0;overflow=hidden;fontSize=15;" vertex="1" parent="w8SIw142XSMGnm05AS23-10">
          <mxGeometry x="121" width="439" height="50" as="geometry" />
        </mxCell>
        <mxCell id="w8SIw142XSMGnm05AS23-14" style="shape=partialRectangle;html=1;whiteSpace=wrap;collapsible=0;dropTarget=0;pointerEvents=0;fillColor=none;top=0;left=0;bottom=0;right=0;points=[[0,0.5],[1,0.5]];portConstraint=eastwest;" vertex="1" parent="w8SIw142XSMGnm05AS23-1">
          <mxGeometry y="140" width="560" height="50" as="geometry" />
        </mxCell>
        <mxCell id="w8SIw142XSMGnm05AS23-15" value="Entity 3" style="shape=partialRectangle;html=1;whiteSpace=wrap;connectable=0;fillColor=none;top=0;left=0;bottom=0;right=0;overflow=hidden;fontSize=17;fontStyle=1" vertex="1" parent="w8SIw142XSMGnm05AS23-14">
          <mxGeometry width="121" height="50" as="geometry" />
        </mxCell>
        <mxCell id="w8SIw142XSMGnm05AS23-16" value="&lt;p class=&quot;MsoNormal&quot; style=&quot;font-size: 15px;&quot;&gt;&lt;span style=&quot;font-family: &amp;quot;times new roman&amp;quot;; font-size: 15px;&quot;&gt;2014&lt;/span&gt;&lt;span style=&quot;font-size: 15px;&quot;&gt;&lt;font face=&quot;宋体&quot; style=&quot;font-size: 15px;&quot;&gt;年&lt;/font&gt;3&lt;font face=&quot;宋体&quot; style=&quot;font-size: 15px;&quot;&gt;月&lt;/font&gt;&lt;font face=&quot;Times New Roman&quot; style=&quot;font-size: 15px;&quot;&gt;_Attribute&lt;/font&gt;&lt;/span&gt;&lt;/p&gt;" style="shape=partialRectangle;html=1;whiteSpace=wrap;connectable=0;fillColor=none;top=0;left=0;bottom=0;right=0;overflow=hidden;fontSize=15;" vertex="1" parent="w8SIw142XSMGnm05AS23-14">
          <mxGeometry x="121" width="439" height="50" as="geometry" />
        </mxCell>
        <mxCell id="w8SIw142XSMGnm05AS23-17" style="shape=partialRectangle;html=1;whiteSpace=wrap;collapsible=0;dropTarget=0;pointerEvents=0;fillColor=none;top=0;left=0;bottom=0;right=0;points=[[0,0.5],[1,0.5]];portConstraint=eastwest;" vertex="1" parent="w8SIw142XSMGnm05AS23-1">
          <mxGeometry y="190" width="560" height="50" as="geometry" />
        </mxCell>
        <mxCell id="w8SIw142XSMGnm05AS23-18" value="Entity 4" style="shape=partialRectangle;html=1;whiteSpace=wrap;connectable=0;fillColor=none;top=0;left=0;bottom=0;right=0;overflow=hidden;fontSize=17;fontStyle=1" vertex="1" parent="w8SIw142XSMGnm05AS23-17">
          <mxGeometry width="121" height="50" as="geometry" />
        </mxCell>
        <mxCell id="w8SIw142XSMGnm05AS23-19" value="&lt;p class=&quot;MsoNormal&quot; style=&quot;font-size: 15px;&quot;&gt;&lt;span style=&quot;font-size: 15px;&quot;&gt;&lt;font face=&quot;宋体&quot; style=&quot;font-size: 15px;&quot;&gt;扩编了大约&lt;/font&gt;900&lt;font face=&quot;宋体&quot; style=&quot;font-size: 15px;&quot;&gt;人&lt;/font&gt;&lt;font face=&quot;Times New Roman&quot; style=&quot;font-size: 15px;&quot;&gt;_&lt;/font&gt;&lt;/span&gt;&lt;span style=&quot;font-family: &amp;quot;times new roman&amp;quot;; font-size: 15px;&quot;&gt;Action&lt;/span&gt;&lt;/p&gt;" style="shape=partialRectangle;html=1;whiteSpace=wrap;connectable=0;fillColor=none;top=0;left=0;bottom=0;right=0;overflow=hidden;fontSize=15;" vertex="1" parent="w8SIw142XSMGnm05AS23-17">
          <mxGeometry x="121" width="439" height="50" as="geometry" />
        </mxCell>
      </root>
    </mxGraphModel>
  </diagram>
</mxfile>
